<?xml version="1.0" encoding="iso-8859-1"?>
<!-- Generator: Adobe Illustrator 19.0.0, SVG Export Plug-In . SVG Version: 6.00 Build 0)  -->
<svg version="1.1" id="Layer_1" xmlns="http://www.w3.org/2000/svg" xmlns:xlink="http://www.w3.org/1999/xlink" x="0px" y="0px"
	 viewBox="0 0 512 512" style="enable-background:new 0 0 512 512;" xml:space="preserve">
<g>
	<g>
		<path d="M496.936,245.5L323.92,7.365c-4.548-6.262-12.611-8.881-19.969-6.488L24.003,91.838
			c-7.297,2.365-12.309,9.23-12.339,16.922c0,0.021-0.002,0.042-0.002,0.063c0,1.413-0.001,293.25,0.002,294.417
			c0.029,7.663,4.991,14.566,12.403,16.943l279.883,90.94c7.36,2.392,15.421-0.23,19.969-6.488L496.936,266.5
			C501.548,260.154,501.395,251.636,496.936,245.5z M47.384,133.406l377.308,122.595L47.384,378.595V133.406z M302.649,473.142
			L87.319,403.177l348.409-113.205L302.649,473.142z M87.321,108.823L302.65,38.858l133.08,183.17L87.321,108.823z"/>
	</g>
</g>
<g>
</g>
<g>
</g>
<g>
</g>
<g>
</g>
<g>
</g>
<g>
</g>
<g>
</g>
<g>
</g>
<g>
</g>
<g>
</g>
<g>
</g>
<g>
</g>
<g>
</g>
<g>
</g>
<g>
</g>
</svg>
